<?xml version="1.0" encoding="iso-8859-1"?>
<!-- Generator: Adobe Illustrator 19.0.0, SVG Export Plug-In . SVG Version: 6.00 Build 0)  -->
<svg version="1.1" id="Layer_1" xmlns="http://www.w3.org/2000/svg" xmlns:xlink="http://www.w3.org/1999/xlink" x="0px" y="0px"
	 viewBox="0 0 512 512" style="enable-background:new 0 0 512 512;" xml:space="preserve">
<g>
	<g>
		<path style="fill:#F6B245;" d="M173.106,101.183c-45.125,0.28-81.728,28.933-81.728,64.129c0,12.44,4.586,24.499,13.265,34.903
			v116.81c0,3.779,3.044,6.845,6.799,6.845H372.09V101.168L173.106,101.183z"/>
		<path style="opacity:0.1;" d="M100.341,146.195l28.567-0.003c10.413-25.898,41.395-44.783,77.986-45.01h-33.788
			c-36.677,0.228-67.723,19.199-78.062,45.193C96.797,146.277,98.56,146.207,100.341,146.195z"/>
		<path style="fill:#FDF3E7;" d="M307.019,323.869c-3.754,0-6.799-3.065-6.799-6.845v-116.81
			c-8.679-10.404-13.265-22.464-13.265-34.903c0-35.367,36.961-64.143,82.39-64.143c45.43,0,82.389,28.776,82.389,64.143
			c0,12.44-4.585,24.501-13.265,34.903v116.81c0,3.779-3.044,6.845-6.799,6.845H307.019z"/>
		<path style="fill:#F8D5AB;" d="M369.345,101.168c-45.429,0-82.389,28.773-82.389,64.143c0,12.441,4.585,24.499,13.264,34.903
			v116.808c0,3.78,3.045,6.844,6.8,6.844H431.67c3.755,0,6.799-3.064,6.799-6.844V200.215c8.679-10.402,13.265-22.463,13.265-34.903
			C451.734,129.941,414.775,101.168,369.345,101.168z M426.952,190.605c-2.25,2.696-3.482,6.098-3.482,9.609v108.651H315.22V200.215
			c0-3.512-1.232-6.912-3.481-9.608c-6.4-7.672-9.783-16.419-9.783-25.295c0-12.378,6.525-24.275,18.373-33.5
			c12.958-10.088,30.366-15.643,49.016-15.643c18.651,0,36.059,5.556,49.017,15.643c11.848,9.225,18.373,21.121,18.373,33.5
			C436.734,174.189,433.352,182.936,426.952,190.605z"/>
	</g>
	<g>
		<path style="fill:#F8D5AB;" d="M474.706,358.47c0,5.67-4.636,10.31-10.302,10.31H343.359c-5.667,0-10.302-4.64-10.302-10.31
			v-14.904c0-5.67,4.635-10.31,10.302-10.31h121.045c5.666,0,10.302,4.64,10.302,10.31V358.47z"/>
	</g>
	<g>
		<path style="fill:#F8C36E;" d="M487.172,322.946c0,5.67-4.636,10.31-10.302,10.31H331.542c-5.666,0-10.302-4.64-10.302-10.31
			V308.04c0-5.67,4.636-10.31,10.302-10.31H476.87c5.665,0,10.302,4.64,10.302,10.31V322.946z"/>
	</g>
	<g>
		<path style="fill:#F8D5AB;" d="M468.731,287.421c0,5.671-4.636,10.31-10.301,10.31H337.385c-5.667,0-10.302-4.639-10.302-10.31
			v-14.903c0-5.671,4.636-10.31,10.302-10.31H458.43c5.665,0,10.301,4.639,10.301,10.31V287.421z"/>
	</g>
	<g>
		<path style="fill:#F39600;" d="M100.341,146.195c-45.125,0.279-81.727,28.936-81.727,64.131c0,12.44,4.585,24.499,13.264,34.903
			v116.808c0,3.78,3.045,6.844,6.8,6.844h260.648V146.183L100.341,146.195z"/>
		<path style="opacity:0.1;" d="M65.816,362.037V245.23c-8.679-10.404-13.265-22.463-13.265-34.903
			c0-35.195,36.602-63.852,81.727-64.131h-33.937c-45.125,0.279-81.727,28.936-81.727,64.131c0,12.44,4.585,24.499,13.264,34.903
			v116.808c0,3.78,3.045,6.844,6.8,6.844h33.938C68.86,368.881,65.816,365.817,65.816,362.037z"/>
		<path style="fill:#FAE4C8;" d="M234.255,368.881c-3.755,0-6.8-3.063-6.8-6.844V245.23c-8.679-10.404-13.264-22.463-13.264-34.903
			c0-35.37,36.96-64.144,82.389-64.144c45.43,0,82.39,28.773,82.39,64.144c0,12.44-4.585,24.501-13.265,34.903v116.808
			c0,3.78-3.044,6.844-6.799,6.844H234.255z"/>
		<path style="fill:#F8C36E;" d="M296.58,146.183c-45.429,0-82.389,28.773-82.389,64.144c0,12.44,4.585,24.499,13.264,34.903
			v116.808c0,3.78,3.045,6.844,6.8,6.844h124.651c3.755,0,6.799-3.063,6.799-6.844V245.23c8.679-10.402,13.265-22.463,13.265-34.903
			C378.97,174.956,342.01,146.183,296.58,146.183z M354.188,235.62c-2.25,2.696-3.482,6.098-3.482,9.609v108.651h-108.25V245.23
			c0-3.512-1.232-6.912-3.481-9.608c-6.4-7.672-9.783-16.419-9.783-25.295c0-12.378,6.525-24.275,18.373-33.5
			c12.958-10.088,30.366-15.644,49.016-15.644c18.651,0,36.059,5.556,49.017,15.644c11.848,9.225,18.373,21.121,18.373,33.5
			C363.97,219.203,360.587,227.95,354.188,235.62z"/>
	</g>
	<g>
		<path style="fill:#FF6489;" d="M512,405.677c0,2.835-2.317,5.155-5.151,5.155H5.151c-2.833,0-5.151-2.32-5.151-5.155v-34.806
			c0-2.836,2.317-5.155,5.151-5.155h501.698c2.833,0,5.151,2.319,5.151,5.155V405.677z"/>
		<path style="opacity:0.1;" d="M31.42,405.677v-34.806c0-2.836,2.318-5.155,5.151-5.155H5.151c-2.833,0-5.151,2.319-5.151,5.155
			v34.806c0,2.835,2.317,5.155,5.151,5.155h31.42C33.738,410.832,31.42,408.512,31.42,405.677z"/>
	</g>
	<g>
		<g>
			<path style="fill:#F8D5AB;" d="M338.72,210.98c-1.97,0-3.9-0.8-5.3-2.19c-1.4-1.4-2.2-3.33-2.2-5.31c0-1.97,0.8-3.91,2.2-5.3
				c1.4-1.399,3.33-2.2,5.3-2.2c1.98,0,3.91,0.801,5.31,2.2c1.39,1.39,2.19,3.33,2.19,5.3c0,1.98-0.8,3.91-2.19,5.31
				C342.63,210.18,340.7,210.98,338.72,210.98z"/>
		</g>
		<g>
			<path style="fill:#F8D5AB;" d="M302.46,226.95c-1.97,0-3.9-0.801-5.3-2.2c-1.4-1.391-2.2-3.32-2.2-5.3c0-1.971,0.8-3.9,2.2-5.301
				c1.39-1.399,3.33-2.199,5.3-2.199c1.97,0,3.91,0.8,5.31,2.199c1.39,1.4,2.19,3.33,2.19,5.301c0,1.98-0.8,3.909-2.19,5.3
				C306.37,226.149,304.43,226.95,302.46,226.95z"/>
		</g>
		<g>
			<path style="fill:#FDF3E7;" d="M335.33,258.89c-1.98,0-3.91-0.8-5.31-2.2c-1.4-1.39-2.2-3.319-2.2-5.3c0-1.979,0.81-3.91,2.2-5.3
				c1.4-1.4,3.33-2.2,5.31-2.2c1.97,0,3.9,0.8,5.3,2.2c1.39,1.39,2.19,3.32,2.19,5.3c0,1.98-0.8,3.91-2.19,5.3
				C339.23,258.09,337.3,258.89,335.33,258.89z"/>
		</g>
		<g>
			<path style="fill:#F8D5AB;" d="M335.32,296.53c-1.97,0-3.9-0.801-5.3-2.19c-1.4-1.4-2.2-3.33-2.2-5.31c0-1.971,0.8-3.9,2.2-5.301
				c1.4-1.399,3.33-2.199,5.3-2.199c1.98,0,3.91,0.8,5.31,2.199c1.39,1.4,2.19,3.33,2.19,5.301c0,1.979-0.8,3.909-2.19,5.31
				C339.23,295.729,337.3,296.53,335.32,296.53z"/>
		</g>
		<g>
			<path style="fill:#FDF3E7;" d="M335.32,334.18c-1.97,0-3.9-0.8-5.3-2.2c-1.4-1.39-2.2-3.33-2.2-5.3c0-1.979,0.8-3.91,2.2-5.31
				c1.4-1.391,3.33-2.19,5.3-2.19c1.98,0,3.91,0.8,5.31,2.19c1.39,1.399,2.19,3.33,2.19,5.31c0,1.97-0.8,3.9-2.19,5.3
				C339.23,333.38,337.3,334.18,335.32,334.18z"/>
		</g>
		<g>
			<path style="fill:#FDF3E7;" d="M310.39,311.359c-1.97,0-3.9-0.8-5.3-2.199c-1.4-1.391-2.2-3.32-2.2-5.301
				c0-1.97,0.8-3.909,2.2-5.3c1.4-1.399,3.33-2.2,5.3-2.2c1.98,0,3.91,0.801,5.31,2.2c1.39,1.391,2.19,3.33,2.19,5.3
				c0,1.98-0.8,3.91-2.19,5.301C314.3,310.56,312.37,311.359,310.39,311.359z"/>
		</g>
	</g>
	<g>
		<path style="fill:#F39600;" d="M58.621,260.251c0-4.143-3.358-7.5-7.5-7.5H31.878v15h19.242
			C55.263,267.751,58.621,264.394,58.621,260.251z"/>
		<path style="fill:#F39600;" d="M58.621,286.487c0-4.143-3.358-7.5-7.5-7.5H31.878v15h19.242
			C55.263,293.987,58.621,290.63,58.621,286.487z"/>
		<path style="fill:#F39600;" d="M58.621,312.724c0-4.143-3.358-7.5-7.5-7.5H31.878v15h19.242
			C55.263,320.224,58.621,316.866,58.621,312.724z"/>
		<path style="fill:#F39600;" d="M58.621,338.958c0-4.143-3.358-7.5-7.5-7.5H31.878v15h19.242
			C55.263,346.458,58.621,343.101,58.621,338.958z"/>
	</g>
	<path style="fill:#FF7697;" d="M48,380.509H0v15h48c4.142,0,7.5-3.357,7.5-7.5C55.5,383.866,52.142,380.509,48,380.509z"/>
	<g>
		<path style="fill:#F6B245;" d="M412.52,155c-1.97,0-3.9-0.8-5.3-2.19c-1.39-1.399-2.19-3.33-2.19-5.31c0-1.97,0.8-3.9,2.19-5.3
			c1.4-1.391,3.33-2.2,5.3-2.2c1.98,0,3.91,0.81,5.31,2.2c1.39,1.399,2.2,3.33,2.2,5.3c0,1.98-0.81,3.91-2.2,5.31
			C416.43,154.2,414.5,155,412.52,155z"/>
	</g>
	<g>
		<path style="fill:#F6B245;" d="M418.5,181.81c-1.97,0-3.91-0.8-5.3-2.199c-1.4-1.4-2.2-3.33-2.2-5.301c0-1.98,0.8-3.91,2.2-5.31
			c1.39-1.39,3.33-2.19,5.3-2.19c1.98,0,3.91,0.801,5.3,2.19c1.4,1.399,2.2,3.33,2.2,5.31c0,1.971-0.8,3.9-2.2,5.301
			C422.41,181.01,420.47,181.81,418.5,181.81z"/>
	</g>
	<g>
		<path style="fill:#F8D5AB;" d="M405.11,212.74c-1.98,0-3.91-0.801-5.31-2.2c-1.39-1.4-2.19-3.33-2.19-5.3
			c0-1.98,0.8-3.91,2.19-5.311c1.4-1.39,3.33-2.189,5.31-2.189c1.97,0,3.9,0.8,5.3,2.189c1.4,1.4,2.2,3.33,2.2,5.311
			c0,1.97-0.8,3.899-2.2,5.3C409.01,211.939,407.08,212.74,405.11,212.74z"/>
	</g>
	<g>
		<path style="fill:#F8D5AB;" d="M387.59,169.83c-1.97,0-3.9-0.8-5.3-2.19c-1.39-1.399-2.19-3.33-2.19-5.31
			c0-1.97,0.8-3.91,2.19-5.3c1.4-1.4,3.33-2.2,5.3-2.2c1.98,0,3.91,0.8,5.31,2.2c1.39,1.399,2.19,3.33,2.19,5.3
			c0,1.97-0.8,3.91-2.19,5.31C391.5,169.03,389.57,169.83,387.59,169.83z"/>
	</g>
</g>
<g>
</g>
<g>
</g>
<g>
</g>
<g>
</g>
<g>
</g>
<g>
</g>
<g>
</g>
<g>
</g>
<g>
</g>
<g>
</g>
<g>
</g>
<g>
</g>
<g>
</g>
<g>
</g>
<g>
</g>
</svg>
