<svg width="474.6" height="378.42" xmlns="http://www.w3.org/2000/svg">
 <style type="text/css">.st0{fill:#005DAB;}
	.st1{fill:#003E6E;}
	.st2{fill:#1A447D;}
	.st3{fill:#035EAA;}
	.st4{fill:#003461;}
	.st5{fill:#00427E;}
	.st6{fill:#002B54;}
	.st7{fill:#FFFFFF;}
	.st8{fill:#0060A2;}
	.st9{opacity:0.5;fill:#0060A2;}
	.st10{opacity:0.5;fill:#003E6E;}
	.st11{opacity:0.5;fill:#536569;}
	.st12{fill:#D1A84E;}
	.st13{fill:#173F6D;}
	.st14{fill:#19518E;}
	.st15{fill:#00A651;}
	.st16{fill:#CC620A;}</style>

 <g>
  <title>background</title>
  <rect fill="none" id="canvas_background" height="602" width="802" y="-1" x="-1"/>
 </g>
 <g>
  <title>Layer 1</title>
  <path id="svg_1" d="m428.93,47.66l-0.95,0c-4.85,0 -8.78,3.93 -8.78,8.78c0,4.85 3.93,8.78 8.78,8.78l0.95,0c4.85,0 8.78,-3.93 8.78,-8.78c0,-4.85 -3.93,-8.78 -8.78,-8.78z" class="st0"/>
  <path id="svg_2" d="m21.09,112.08l-0.95,0c-4.85,0 -8.78,3.93 -8.78,8.78c0,4.85 3.93,8.78 8.78,8.78l0.95,0c4.85,0 8.78,-3.93 8.78,-8.78c-0.01,-4.85 -3.94,-8.78 -8.78,-8.78z" class="st0"/>
  <path id="svg_3" d="m362.74,140.96c1.83,0 3.32,-1.49 3.32,-3.32c0,-1.83 -1.49,-3.32 -3.32,-3.32l-15.39,0l0,-12.25l15.39,0c1.83,0 3.32,-1.49 3.32,-3.32c0,-1.83 -1.49,-3.32 -3.32,-3.32l-15.39,0l0,-15.24c3.37,-1.52 5.72,-4.91 5.72,-8.84c0,-5.36 -4.35,-9.71 -9.71,-9.71s-9.71,4.35 -9.71,9.71c0,3.94 2.35,7.32 5.72,8.84l0,15.24l-15.24,0c-1.83,0 -3.32,1.49 -3.32,3.32c0,1.83 1.49,3.32 3.32,3.32l15.24,0l0,12.25l-15.24,0c-1.83,0 -3.32,1.49 -3.32,3.32c0,1.83 1.49,3.32 3.32,3.32l15.24,0l0,7.87c0,56.2 -17.93,94.77 -17.93,94.77l0,46.36l43.82,0l0,-46.36c0,0 -17.31,-37.26 -17.91,-91.89l0,-10.75l15.39,0z" class="st1"/>
  <rect id="svg_4" height="127.92" width="40.65" class="st1" y="204.38" x="365.06"/>
  <path id="svg_5" d="m404.28,159.61l-17.54,0c-5.55,0 -10.05,-4.5 -10.05,-10.05c0,-5.55 4.5,-10.05 10.05,-10.05l13.73,0c-4.34,-17.09 -11.26,-33.16 -20.33,-47.75l30.25,0c4.87,0 8.81,-3.95 8.81,-8.81c0,-4.87 -3.95,-8.81 -8.81,-8.81l-31.27,0c-2.38,-0.58 -4.11,-2.31 -4.11,-4.33c0,-2.5 2.64,-4.54 5.88,-4.54l9.93,0c0.06,0 0.11,-0.01 0.17,-0.01l13.75,0c4.87,0 8.81,-3.95 8.81,-8.81c0,-4.87 -3.95,-8.81 -8.81,-8.81l-13.92,0l-7.13,0l-43.01,0c-29.01,-22.85 -65.61,-36.49 -105.41,-36.49c-1.72,0 -3.42,0.03 -5.13,0.08l-115.87,0c-0.38,-0.05 -0.76,-0.08 -1.15,-0.08l-21.19,0c-4.9,0 -8.87,3.97 -8.87,8.87c0,4.9 3.97,8.87 8.87,8.87l21.19,0c0.16,0 0.31,-0.01 0.46,-0.02l22.3,0c3.23,0 5.88,2.04 5.88,4.54s-2.64,4.54 -5.88,4.54l-6.16,0c-0.04,0 -0.07,0 -0.11,0l-15.6,0c-4.9,0 -8.87,3.97 -8.87,8.87c0,4.9 3.97,8.87 8.87,8.87l6.36,0c-17.16,15.67 -31.1,34.8 -40.72,56.28l-26.38,0l-7.13,0l-1.04,0c-4.87,0 -8.81,3.95 -8.81,8.81s3.95,8.81 8.81,8.81l0.87,0c0.06,0 0.11,0.01 0.17,0.01l9.93,0c3.23,0 5.87,2.04 5.87,4.54c0,2.02 -1.74,3.75 -4.11,4.33l-18.4,0c-4.87,0 -8.81,3.95 -8.81,8.81c0,4.87 3.95,8.82 8.81,8.82l27.29,0c-1.2,7.98 -1.84,16.14 -1.89,24.44l10.92,0c5.55,0 10.05,4.5 10.05,10.05c0,5.55 -4.5,10.05 -10.05,10.05l-10.92,0c0.04,46.82 0.17,133.99 0.17,133.99s111.44,17.39 170.27,17.39c64.71,0 170.46,-17.39 170.46,-17.39s-0.02,-123.63 -0.02,-153.05c0,-7.45 -0.5,-14.77 -1.43,-21.97z" class="st0"/>
  <polygon id="svg_6" points="185.25,340.85 231,340.85 231,174.37 130.9,174.37 130.9,262.05 183.34,262.1 " class="st2"/>
  <g id="svg_7">
   <rect id="svg_8" height="81.5" width="5.2" class="st3" y="180.55" x="146.86"/>
   <rect id="svg_9" height="81.5" width="5.2" class="st3" y="180.55" x="137.87"/>
   <rect id="svg_10" height="81.5" width="5.2" class="st3" y="180.55" x="155.86"/>
   <rect id="svg_11" height="81.5" width="5.2" class="st3" y="180.55" x="164.85"/>
   <rect id="svg_12" height="81.5" width="5.2" class="st3" y="180.55" x="173.84"/>
   <polygon id="svg_13" points="188.03,283.02 182.83,280.57 182.83,180.55 188.03,180.55  " class="st3"/>
   <polygon id="svg_14" points="197.03,287.42 191.82,284.94 191.82,180.55 197.03,180.55  " class="st3"/>
   <rect id="svg_15" height="45.39" width="5.2" class="st3" y="180.55" x="200.82"/>
   <rect id="svg_16" height="45.39" width="5.2" class="st3" y="180.55" x="209.81"/>
   <rect id="svg_17" height="45.39" width="5.2" class="st3" y="180.55" x="218.8"/>
  </g>
  <rect id="svg_18" height="80.77" width="91.11" class="st1" y="262.05" x="91.73"/>
  <rect id="svg_19" height="127.56" width="93.18" class="st4" y="210.73" x="250.08"/>
  <rect id="svg_20" height="131.2" width="58" class="st5" y="220.82" x="65"/>
  <rect id="svg_21" height="116.88" width="80.22" class="st5" y="225.94" x="197.03"/>
  <rect id="svg_22" height="5.32" width="24.62" class="st6" y="342.82" x="240.23"/>
  <rect id="svg_23" height="5.32" width="24.62" class="st6" y="352.79" x="240.23"/>
  <rect id="svg_24" height="48.66" width="129.72" class="st1" y="289.63" x="276.3"/>
  <polygon id="svg_25" points="169.44,274.52 240.26,308.29 240.12,340.85 169.44,340.85 " class="st7"/>
  <rect id="svg_26" height="62.09" width="77.89" class="st7" y="296.03" x="45.11"/>
  <rect id="svg_27" height="58" width="65.48" class="st7" y="300.12" x="360.41"/>
  <g id="svg_28">
   <rect id="svg_29" height="5.35" width="35.35" class="st6" y="213.81" x="370.38"/>
   <rect id="svg_30" height="5.35" width="35.35" class="st6" y="223.82" x="370.38"/>
   <rect id="svg_31" height="5.35" width="35.35" class="st6" y="233.84" x="370.38"/>
   <rect id="svg_32" height="5.35" width="35.35" class="st6" y="243.85" x="370.38"/>
   <rect id="svg_33" height="5.35" width="35.35" class="st6" y="253.87" x="370.38"/>
   <rect id="svg_34" height="5.35" width="35.35" class="st6" y="263.88" x="370.38"/>
  </g>
  <path id="svg_35" d="m440.71,243.31l-50.69,0c-5.09,0 -9.22,4.13 -9.22,9.22c0,5.09 4.13,9.22 9.22,9.22l16.22,0c0.04,0 0.07,0.01 0.11,0.01l6.41,0c3.36,0 6.11,2.12 6.11,4.72s-2.75,4.72 -6.11,4.72l-23.18,0c-0.16,-0.01 -0.32,-0.02 -0.48,-0.02l-22.03,0c-5.09,0 -9.22,4.13 -9.22,9.22c0,5.09 4.13,9.22 9.22,9.22l22.03,0c0.41,0 0.8,-0.04 1.2,-0.09l58.34,0l-7.58,-46.22c-0.13,0.01 -0.24,0 -0.35,0z" class="st7"/>
  <path id="svg_36" d="m432.68,169.74c0,5.57 -4.52,10.09 -10.09,10.09l-42.13,0c-5.57,0 -10.09,-4.52 -10.09,-10.09l0,0c0,-5.57 4.52,-10.09 10.09,-10.09l42.13,0c5.57,0 10.09,4.52 10.09,10.09l0,0z" class="st8"/>
  <path id="svg_37" d="m97.32,210.73c0,5.57 -4.52,10.09 -10.09,10.09l-42.13,0c-5.57,0 -10.09,-4.52 -10.09,-10.09l0,0c0,-5.57 4.52,-10.09 10.09,-10.09l42.13,0c5.57,0 10.09,4.52 10.09,10.09l0,0z" class="st8"/>
  <rect id="svg_38" height="5.79" width="5.43" class="st1" y="322.07" x="186.5"/>
  <rect id="svg_39" height="5.79" width="5.44" class="st1" y="303.29" x="185.61"/>
  <rect id="svg_40" height="5.79" width="5.43" class="st1" y="294.73" x="177.91"/>
  <rect id="svg_41" height="5.79" width="5.43" class="st1" y="322.07" x="214.9"/>
  <rect id="svg_42" height="5.79" width="5.43" class="st1" y="313.47" x="227.83"/>
  <rect id="svg_43" height="5.32" width="62.7" class="st6" y="233.18" x="205.67"/>
  <rect id="svg_44" height="5.32" width="62.7" class="st6" y="243.14" x="205.67"/>
  <rect id="svg_45" height="5.32" width="53.46" class="st6" y="253.11" x="205.67"/>
  <rect id="svg_46" height="5.32" width="59" class="st6" y="263.08" x="205.67"/>
  <rect id="svg_47" height="5.32" width="59" class="st6" y="273.05" x="205.67"/>
  <rect id="svg_48" height="5.32" width="53.46" class="st6" y="295.9" x="297.53"/>
  <rect id="svg_49" height="5.32" width="59" class="st6" y="305.87" x="297.53"/>
  <rect id="svg_50" height="5.32" width="59" class="st6" y="315.84" x="297.53"/>
  <rect id="svg_51" height="5.32" width="59" class="st6" y="283.02" x="205.67"/>
  <g id="svg_52">
   <rect id="svg_53" height="5.32" width="58" class="st6" y="236.18" x="65"/>
   <rect id="svg_54" height="5.32" width="58" class="st6" y="246.14" x="65"/>
   <rect id="svg_55" height="5.32" width="58" class="st6" y="256.11" x="65"/>
   <rect id="svg_56" height="5.32" width="58" class="st6" y="266.08" x="65"/>
   <rect id="svg_57" height="5.32" width="58" class="st6" y="276.05" x="65"/>
   <rect id="svg_58" height="5.32" width="58" class="st6" y="286.02" x="65"/>
  </g>
  <polygon id="svg_59" points="264.67,298.31 219.39,298.31 208.35,292.98 264.67,292.98 " class="st6"/>
  <polygon id="svg_60" points="264.85,308.28 240.23,308.28 229.07,302.95 264.85,302.95 " class="st6"/>
  <rect id="svg_61" height="5.32" width="24.62" class="st6" y="312.92" x="240.23"/>
  <rect id="svg_62" height="8.25" width="16.91" class="st1" y="217.69" x="224"/>
  <path id="svg_63" d="m238.85,80.18c0.43,0.12 0.43,0.32 0,0.44l-1.14,1.14c-0.12,0.44 -0.32,0.44 -0.44,0l-1.14,-1.14c-0.44,-0.12 -0.44,-0.32 0,-0.44l1.14,-1.14c0.12,-0.44 0.32,-0.44 0.44,0l1.14,1.14z" class="st9"/>
  <path id="svg_64" d="m269.67,77.13c0.43,0.12 0.43,0.32 0,0.44l-1.14,1.14c-0.12,0.44 -0.32,0.44 -0.44,0l-1.14,-1.14c-0.44,-0.12 -0.44,-0.32 0,-0.44l1.14,-1.14c0.12,-0.44 0.32,-0.44 0.44,0l1.14,1.14z" class="st9"/>
  <path id="svg_65" d="m232.58,99.4c0.43,0.12 0.43,0.32 0,0.44l-1.14,1.14c-0.12,0.44 -0.32,0.44 -0.44,0l-1.14,-1.14c-0.44,-0.12 -0.44,-0.32 0,-0.44l1.14,-1.14c0.12,-0.44 0.32,-0.44 0.44,0l1.14,1.14z" class="st9"/>
  <path id="svg_66" d="m307.03,83.11c0.44,0.12 0.44,0.32 0,0.44l-1.14,1.14c-0.12,0.44 -0.32,0.44 -0.44,0l-1.14,-1.14c-0.44,-0.12 -0.44,-0.32 0,-0.44l1.14,-1.14c0.12,-0.44 0.32,-0.44 0.44,0l1.14,1.14z" class="st9"/>
  <path id="svg_67" d="m298.58,100.87c0.43,0.12 0.43,0.32 0,0.44l-1.14,1.14c-0.12,0.44 -0.32,0.44 -0.44,0l-1.14,-1.14c-0.44,-0.12 -0.44,-0.32 0,-0.44l1.14,-1.14c0.12,-0.44 0.32,-0.44 0.44,0l1.14,1.14z" class="st9"/>
  <path id="svg_68" d="m265.76,138.26c0.44,0.12 0.44,0.32 0,0.44l-1.14,1.14c-0.12,0.44 -0.32,0.44 -0.44,0l-1.14,-1.14c-0.44,-0.12 -0.44,-0.32 0,-0.44l1.15,-1.14c0.12,-0.44 0.32,-0.44 0.44,0l1.13,1.14z" class="st9"/>
  <path id="svg_69" d="m276.05,102.23c0.82,0.23 0.82,0.6 0,0.83l-2.15,2.15c-0.23,0.82 -0.6,0.82 -0.83,0l-2.15,-2.15c-0.82,-0.23 -0.82,-0.6 0,-0.83l2.15,-2.15c0.23,-0.82 0.6,-0.82 0.83,0l2.15,2.15z" class="st10"/>
  <path id="svg_70" d="m324.82,92.75c0.82,0.23 0.82,0.6 0,0.83l-2.15,2.15c-0.23,0.82 -0.6,0.82 -0.83,0l-2.15,-2.15c-0.82,-0.23 -0.82,-0.6 0,-0.83l2.15,-2.15c0.23,-0.82 0.6,-0.82 0.83,0l2.15,2.15z" class="st9"/>
  <path id="svg_71" d="m217.98,131.97c0.82,0.23 0.82,0.6 0,0.83l-2.15,2.15c-0.23,0.82 -0.6,0.82 -0.83,0l-2.15,-2.15c-0.82,-0.23 -0.82,-0.6 0,-0.83l2.15,-2.15c0.23,-0.82 0.6,-0.82 0.83,0l2.15,2.15z" class="st10"/>
  <path id="svg_72" d="m245.26,115.36c0.82,0.23 0.82,0.6 0,0.83l-2.15,2.15c-0.23,0.82 -0.6,0.82 -0.83,0l-2.15,-2.15c-0.82,-0.23 -0.82,-0.6 0,-0.83l2.15,-2.15c0.23,-0.82 0.6,-0.82 0.83,0l2.15,2.15z" class="st10"/>
  <rect id="svg_73" height="13.48" width="32.18" class="st2" y="160.89" x="191.82"/>
  <path id="svg_74" d="m437.23,185.89" class="st7"/>
  <g id="svg_75">
   <path id="svg_76" d="m345.62,204.24c0,9.02 7.31,16.33 16.33,16.33c9.02,0 16.33,-7.31 16.33,-16.33c0,-9.02 -7.31,-16.33 -16.33,-16.33c-9.02,0.01 -16.33,7.32 -16.33,16.33z" class="st7"/>
   <path id="svg_77" d="m361.33,193.37l1.24,0c6.22,0.02 10.61,4.83 10.61,12.25c0,3.08 -2.42,3.08 -4.41,5.11c-2.05,2.09 0.32,5.21 -6.2,5.23l-1.24,0c-6.51,-0.01 -4.15,-3.14 -6.2,-5.23c-2,-2.04 -4.41,-2.04 -4.41,-5.11c0,-7.41 4.39,-12.23 10.61,-12.25z" class="st11"/>
   <path id="svg_78" d="m365.06,204.38c0,1.5 1.21,2.71 2.71,2.71c1.5,0 2.71,-1.21 2.71,-2.71c0,-1.5 -1.21,-2.71 -2.71,-2.71c-1.49,0 -2.71,1.21 -2.71,2.71z" class="st8"/>
   <path id="svg_79" d="m353.51,204.38c0,1.5 1.21,2.71 2.71,2.71c1.5,0 2.71,-1.21 2.71,-2.71c0,-1.5 -1.21,-2.71 -2.71,-2.71c-1.5,0 -2.71,1.21 -2.71,2.71z" class="st8"/>
   <path id="svg_80" d="m375.17,211.46c0,0 2.25,4.7 3.11,6.55c0.58,1.24 0,2.13 -1.35,1.72c-1.72,-0.52 -7.59,-2.5 -7.59,-2.5l5.83,-5.77z" class="st7"/>
   <path id="svg_81" d="m363.82,209.64c0.34,-0.4 -1.15,-2.46 -1.75,-2.46s-2.08,2.12 -1.74,2.46c0.17,0.17 0.96,-0.66 1.74,-0.65c0.79,0.01 1.58,0.85 1.75,0.65z" class="st8"/>
  </g>
  <g id="svg_82">
   <g id="svg_83">
    <path id="svg_84" d="m275.8,219.83c0,9.02 -7.31,16.33 -16.33,16.33c-9.02,0 -16.33,-7.31 -16.33,-16.33c0,-9.02 7.31,-16.33 16.33,-16.33c9.02,0 16.33,7.31 16.33,16.33z" class="st7"/>
    <path id="svg_85" d="m245.92,226.53c0,0 -2.25,4.71 -3.11,6.55c-0.57,1.24 0,2.13 1.35,1.72c1.72,-0.52 7.59,-2.5 7.59,-2.5l-5.83,-5.77z" class="st7"/>
   </g>
   <g id="svg_86">
    <path id="svg_87" d="m249.17,216.65c0,0 -4.46,9.14 -0.84,10.99c3.61,1.84 9.31,-9.23 9.31,-9.23s-0.74,-7.08 -4.36,-6.59c-3.62,0.5 -4.11,4.83 -4.11,4.83z" class="st8"/>
    <path id="svg_88" d="m269.78,216.65c0,0 4.46,9.14 0.84,10.99c-3.61,1.84 -9.31,-9.23 -9.31,-9.23s0.74,-7.08 4.36,-6.59c3.63,0.5 4.11,4.83 4.11,4.83z" class="st8"/>
    <rect id="svg_89" height="11.72" width="11.71" class="st8" y="211.81" x="253.72"/>
    <g id="svg_90">
     <circle id="svg_91" r="0.91" cy="213.82" cx="265.19" class="st7"/>
     <path id="svg_92" d="m264.19,215.78c0,0.5 -0.41,0.91 -0.91,0.91c-0.5,0 -0.91,-0.41 -0.91,-0.91c0,-0.5 0.41,-0.91 0.91,-0.91c0.5,0 0.91,0.41 0.91,0.91z" class="st7"/>
     <path id="svg_93" d="m268.03,215.75c0,0.5 -0.41,0.91 -0.91,0.91c-0.5,0 -0.91,-0.41 -0.91,-0.91c0,-0.5 0.41,-0.91 0.91,-0.91c0.5,0 0.91,0.41 0.91,0.91z" class="st7"/>
     <path id="svg_94" d="m266.13,217.71c0,0.5 -0.41,0.91 -0.91,0.91c-0.5,0 -0.91,-0.41 -0.91,-0.91c0,-0.5 0.41,-0.91 0.91,-0.91c0.5,0 0.91,0.41 0.91,0.91z" class="st7"/>
    </g>
    <g id="svg_95">
     <path id="svg_96" d="m256.6,215.75c0,1.38 -1.12,2.5 -2.5,2.5c-1.38,0 -2.5,-1.12 -2.5,-2.5c0,-1.38 1.12,-2.5 2.5,-2.5c1.38,0 2.5,1.12 2.5,2.5z" class="st7"/>
    </g>
   </g>
  </g>
  <g id="svg_97">
   <g id="svg_98">
    <path id="svg_99" d="m290.42,103.34c0,-7.6 -20.98,-24.38 -61.47,-24.38c-36.56,0 -44.41,15.6 -44.41,24.38c0,8.77 7.85,24.38 44.41,24.38c40.49,-0.01 61.47,-16.78 61.47,-24.38z" class="st2"/>
    <path id="svg_100" d="m266.34,85.71c0,0 10.89,-3.49 15.98,-2.18c5.08,1.31 0,12.64 0,12.64l-15.98,-10.46z" class="st2"/>
    <path id="svg_101" d="m266.34,121.45c0,0 10.89,3.48 15.98,2.18c5.08,-1.31 0,-12.63 0,-12.63l-15.98,10.45z" class="st2"/>
   </g>
   <path id="svg_102" d="m227.72,129.74c0,3.64 -2.95,6.59 -6.59,6.59l-15.52,0c-3.64,0 -6.59,-2.95 -6.59,-6.59l0,-11.63c0,-3.64 2.95,-6.59 6.59,-6.59l10.92,0c3.64,0 11.18,2.95 11.18,6.59l0,11.63l0.01,0z" class="st2"/>
   <path id="svg_103" d="m207.33,129.3c0,1.38 -1.12,2.5 -2.5,2.5c-1.38,0 -2.5,-1.12 -2.5,-2.5c0,-1.38 1.12,-2.5 2.5,-2.5c1.38,0 2.5,1.12 2.5,2.5z" class="st0"/>
   <path id="svg_104" d="m215.48,129.3c0,1.38 -1.12,2.5 -2.5,2.5c-1.38,0 -2.5,-1.12 -2.5,-2.5c0,-1.38 1.12,-2.5 2.5,-2.5c1.38,0 2.5,1.12 2.5,2.5z" class="st0"/>
   <path id="svg_105" d="m223.39,129.3c0,1.38 -1.12,2.5 -2.5,2.5c-1.38,0 -2.5,-1.12 -2.5,-2.5c0,-1.38 1.12,-2.5 2.5,-2.5c1.38,0 2.5,1.12 2.5,2.5z" class="st0"/>
  </g>
  <g id="svg_115">
   <ellipse id="svg_116" ry="8.07" rx="8.07" cy="53.53" cx="173.84" class="st12" transform="matrix(0.8941 -0.4479 0.4479 0.8941 -5.5639 83.5401)"/>
   <g id="svg_117">
    <path id="svg_118" d="m173.84,42.4l0,0c-0.53,0 -0.97,-0.43 -0.97,-0.97l0,-6.88c0,-0.53 0.43,-0.97 0.97,-0.97l0,0c0.53,0 0.97,0.43 0.97,0.97l0,6.88c0,0.54 -0.44,0.97 -0.97,0.97z" class="st12"/>
    <path id="svg_119" d="m173.84,73.48l0,0c-0.53,0 -0.97,-0.43 -0.97,-0.97l0,-6.88c0,-0.53 0.43,-0.97 0.97,-0.97l0,0c0.53,0 0.97,0.43 0.97,0.97l0,6.88c0,0.54 -0.44,0.97 -0.97,0.97z" class="st12"/>
   </g>
   <g id="svg_120">
    <path id="svg_121" d="m181.71,45.66l0,0c-0.38,-0.38 -0.38,-0.99 0,-1.37l4.87,-4.87c0.38,-0.38 0.99,-0.38 1.37,0l0,0c0.38,0.38 0.38,0.99 0,1.37l-4.87,4.87c-0.38,0.38 -0.99,0.38 -1.37,0z" class="st12"/>
    <path id="svg_122" d="m159.74,67.64l0,0c-0.38,-0.38 -0.38,-0.99 0,-1.37l4.87,-4.87c0.38,-0.38 0.99,-0.38 1.37,0l0,0c0.38,0.38 0.38,0.99 0,1.37l-4.87,4.87c-0.38,0.38 -1,0.38 -1.37,0z" class="st12"/>
   </g>
   <g id="svg_123">
    <path id="svg_124" d="m184.97,53.53l0,0c0,-0.53 0.43,-0.97 0.97,-0.97l6.88,0c0.53,0 0.97,0.43 0.97,0.97l0,0c0,0.53 -0.43,0.97 -0.97,0.97l-6.88,0c-0.53,0 -0.97,-0.43 -0.97,-0.97z" class="st12"/>
    <path id="svg_125" d="m153.89,53.53l0,0c0,-0.53 0.43,-0.97 0.97,-0.97l6.88,0c0.53,0 0.97,0.43 0.97,0.97l0,0c0,0.53 -0.43,0.97 -0.97,0.97l-6.88,0c-0.53,0 -0.97,-0.43 -0.97,-0.97z" class="st12"/>
   </g>
   <g id="svg_126">
    <path id="svg_127" d="m181.71,61.41l0,0c0.38,-0.38 0.99,-0.38 1.37,0l4.87,4.87c0.38,0.38 0.38,0.99 0,1.37l0,0c-0.38,0.38 -0.99,0.38 -1.37,0l-4.87,-4.87c-0.38,-0.38 -0.38,-1 0,-1.37z" class="st12"/>
    <path id="svg_128" d="m159.74,39.43l0,0c0.38,-0.38 0.99,-0.38 1.37,0l4.87,4.87c0.38,0.38 0.38,0.99 0,1.37l0,0c-0.38,0.38 -0.99,0.38 -1.37,0l-4.87,-4.87c-0.38,-0.38 -0.38,-0.99 0,-1.37z" class="st12"/>
   </g>
  </g>
  <path id="svg_129" d="m149.37,127.99c-0.02,0 -0.04,0.01 -0.06,0.01c0.36,-0.82 0.56,-1.73 0.56,-2.69c0,-3.74 -3.03,-6.78 -6.78,-6.78c-1.32,0 -2.55,0.38 -3.6,1.04c-1.41,-3.43 -4.78,-5.84 -8.72,-5.84c-5.21,0 -9.43,4.22 -9.43,9.43c0,0.39 0.03,0.78 0.08,1.16c-0.03,0 -0.05,0 -0.08,0c-3.49,0 -6.32,2.83 -6.32,6.32c0,3.49 2.83,6.32 6.32,6.32l28.02,0c2.48,0 4.48,-2.01 4.48,-4.48c0.01,-2.49 -1.99,-4.49 -4.47,-4.49z" class="st13"/>
  <path id="svg_130" d="m280.41,152.7c-0.01,0 -0.01,0 -0.02,0c0.1,-0.22 0.15,-0.47 0.15,-0.73c0,-1.02 -0.83,-1.85 -1.85,-1.85c-0.36,0 -0.7,0.11 -0.98,0.28c-0.39,-0.94 -1.31,-1.6 -2.38,-1.6c-1.42,0 -2.58,1.15 -2.58,2.58c0,0.11 0.01,0.21 0.02,0.32c-0.01,0 -0.01,0 -0.02,0c-0.95,0 -1.73,0.77 -1.73,1.73c0,0.95 0.77,1.73 1.73,1.73l7.65,0c0.68,0 1.22,-0.55 1.22,-1.22c0.02,-0.69 -0.53,-1.24 -1.21,-1.24z" class="st13"/>
  <path id="svg_131" d="m138.14,133.88c-0.02,0 -0.04,0.01 -0.07,0.01c0.43,-0.99 0.67,-2.09 0.67,-3.24c0,-4.51 -3.66,-8.17 -8.17,-8.17c-1.59,0 -3.08,0.46 -4.34,1.25c-1.7,-4.13 -5.76,-7.05 -10.51,-7.05c-6.28,0 -11.37,5.09 -11.37,11.37c0,0.47 0.04,0.94 0.09,1.4c-0.03,0 -0.06,0 -0.09,0c-4.21,0 -7.62,3.41 -7.62,7.62s3.41,7.62 7.62,7.62l33.78,0c2.99,0 5.4,-2.42 5.4,-5.4c0.01,-2.99 -2.41,-5.41 -5.39,-5.41z" class="st14"/>
  <path id="svg_132" d="m268.84,48.71c0.01,0 0.02,0 0.04,0c-0.23,-0.53 -0.35,-1.11 -0.35,-1.72c0,-2.39 1.94,-4.33 4.33,-4.33c0.85,0 1.63,0.25 2.3,0.66c0.9,-2.19 3.05,-3.73 5.57,-3.73c3.33,0 6.02,2.7 6.02,6.02c0,0.25 -0.02,0.5 -0.05,0.74c0.02,0 0.03,0 0.05,0c2.23,0 4.04,1.81 4.04,4.04c0,2.23 -1.81,4.04 -4.04,4.04l-17.9,0c-1.58,0 -2.86,-1.28 -2.86,-2.86c-0.02,-1.58 1.27,-2.86 2.85,-2.86z" class="st13"/>
  <path id="svg_133" d="m354.76,87.06c-0.01,0 -0.03,0 -0.04,0c0.27,-0.63 0.43,-1.33 0.43,-2.07c0,-2.88 -2.34,-5.22 -5.22,-5.22c-1.02,0 -1.97,0.3 -2.77,0.8c-1.09,-2.64 -3.68,-4.5 -6.72,-4.5c-4.01,0 -7.26,3.25 -7.26,7.26c0,0.3 0.02,0.6 0.06,0.89c-0.02,0 -0.04,0 -0.06,0c-2.69,0 -4.87,2.18 -4.87,4.87c0,2.69 2.18,4.87 4.87,4.87l21.59,0c1.91,0 3.45,-1.55 3.45,-3.45c0,-1.9 -1.55,-3.45 -3.46,-3.45z" class="st14"/>
  <path id="svg_134" d="m310.87,52.27c-0.02,0 -0.03,0 -0.05,0c0.29,-0.66 0.45,-1.39 0.45,-2.15c0,-3 -2.43,-5.43 -5.43,-5.43c-1.06,0 -2.05,0.31 -2.88,0.83c-1.13,-2.75 -3.83,-4.68 -6.99,-4.68c-4.17,0 -7.55,3.38 -7.55,7.55c0,0.32 0.03,0.62 0.06,0.93c-0.02,0 -0.04,0 -0.06,0c-2.8,0 -5.06,2.27 -5.06,5.06c0,2.8 2.27,5.06 5.06,5.06l22.45,0c1.98,0 3.59,-1.61 3.59,-3.59c0,-1.97 -1.61,-3.58 -3.59,-3.58z" class="st14"/>
  <path id="svg_135" d="m116.26,84.51c0.43,0.12 0.43,0.32 0,0.44l-1.14,1.14c-0.12,0.44 -0.32,0.44 -0.44,0l-1.14,-1.14c-0.44,-0.12 -0.44,-0.32 0,-0.44l1.14,-1.14c0.12,-0.44 0.32,-0.44 0.44,0l1.14,1.14z" class="st9"/>
  <rect id="svg_136" height="7.28" width="3.42" class="st3" y="218.01" x="329.91"/>
  <rect id="svg_137" height="7.28" width="3.42" class="st3" y="238.27" x="304.81"/>
  <rect id="svg_138" height="7.28" width="3.42" class="st3" y="238.27" x="318.22"/>
  <rect id="svg_139" height="7.28" width="3.42" class="st3" y="218.01" x="304.81"/>
  <rect id="svg_140" height="7.28" width="3.42" class="st3" y="218.01" x="288.71"/>
  <rect id="svg_141" height="7.28" width="3.42" class="st3" y="308.28" x="412.03"/>
  <rect id="svg_142" height="7.28" width="3.42" class="st3" y="308.28" x="386.94"/>
  <rect id="svg_143" height="7.28" width="3.42" class="st3" y="319.7" x="399.81"/>
  <rect id="svg_144" height="7.28" width="3.42" class="st3" y="308.28" x="370.84"/>
  <rect id="svg_145" height="7.28" width="3.42" class="st3" y="253.39" x="329.91"/>
  <rect id="svg_146" height="7.28" width="3.42" class="st3" y="253.39" x="288.71"/>
  <rect id="svg_147" height="7.28" width="3.42" class="st3" y="273.65" x="304.81"/>
  <rect id="svg_148" height="7.28" width="3.42" class="st3" y="273.64" x="318.22"/>
  <rect id="svg_149" height="7.28" width="3.42" class="st3" y="253.39" x="304.81"/>
  <rect id="svg_150" height="7.28" width="7.33" class="st3" y="273.04" x="141.84"/>
  <rect id="svg_151" height="7.28" width="7.33" class="st3" y="273.04" x="156.92"/>
  <rect id="svg_152" height="7.28" width="7.33" class="st3" y="291.06" x="141.84"/>
  <rect id="svg_153" height="7.28" width="7.33" class="st3" y="304.63" x="127.23"/>
  <rect id="svg_154" height="7.28" width="7.33" class="st3" y="291.06" x="156.92"/>
  <rect id="svg_155" height="7.28" width="7.33" class="st3" y="302.55" x="109.07"/>
  <rect id="svg_156" height="7.28" width="7.33" class="st3" y="320.57" x="94"/>
  <rect id="svg_157" height="7.28" width="7.33" class="st3" y="320.57" x="109.07"/>
  <rect id="svg_158" height="7.28" width="7.33" class="st3" y="302.55" x="80.07"/>
  <rect id="svg_159" height="7.28" width="7.33" class="st3" y="320.57" x="65"/>
  <g id="svg_160">
   <g id="svg_161">
    <path id="svg_162" d="m110.79,262.05c0,9.02 7.31,16.33 16.33,16.33c9.02,0 16.33,-7.31 16.33,-16.33c0,-9.02 -7.31,-16.33 -16.33,-16.33c-9.02,0 -16.33,7.31 -16.33,16.33z" class="st7"/>
    <g id="svg_163">
     <path id="svg_164" d="m115.91,262.05c0,6.19 5.02,11.21 11.21,11.21c6.19,0 11.21,-5.02 11.21,-11.21c0,-6.19 -5.02,-11.21 -11.21,-11.21c-6.19,0 -11.21,5.02 -11.21,11.21z" class="st15"/>
    </g>
    <path id="svg_165" d="m140.34,269.27c0,0 2.25,4.71 3.11,6.54c0.57,1.24 0,2.13 -1.35,1.72c-1.72,-0.52 -7.59,-2.5 -7.59,-2.5l5.83,-5.76z" class="st7"/>
   </g>
   <path id="svg_166" d="m135.38,262.89l-16.51,0c0,0 1.45,6.37 8.26,6.37c6.8,0.01 8.25,-6.37 8.25,-6.37z" class="st7"/>
   <g id="svg_167">
    <g id="svg_168">
     <rect id="svg_169" height="5.77" width="1.45" class="st15" y="262.36" x="132.34"/>
    </g>
    <g id="svg_170">
     <rect id="svg_171" height="6.79" width="1.45" class="st15" y="262.36" x="129.4"/>
    </g>
    <g id="svg_172">
     <rect id="svg_173" height="5.77" width="1.45" class="st15" y="262.36" x="120.43"/>
    </g>
    <g id="svg_174">
     <rect id="svg_175" height="6.79" width="1.45" class="st15" y="262.36" x="123.37"/>
    </g>
    <g id="svg_176">
     <rect id="svg_177" height="7.88" width="1.45" class="st15" y="262.36" x="126.4"/>
    </g>
   </g>
   <g id="svg_178">
    <path id="svg_179" d="m130.13,260.79c-0.19,0 -0.38,-0.07 -0.53,-0.22c-0.29,-0.29 -0.29,-0.77 0,-1.06l2.62,-2.62c0.14,-0.14 0.33,-0.22 0.53,-0.22l0,0c0.2,0 0.39,0.08 0.53,0.22l2.62,2.62c0.29,0.29 0.29,0.77 0,1.06c-0.29,0.29 -0.77,0.29 -1.06,0l-2.09,-2.09l-2.09,2.09c-0.15,0.15 -0.34,0.22 -0.53,0.22z" class="st7"/>
   </g>
   <g id="svg_180">
    <path id="svg_181" d="m123.78,260.95c-0.19,0 -0.38,-0.07 -0.53,-0.22l-2.09,-2.09l-2.09,2.09c-0.29,0.29 -0.77,0.29 -1.06,0c-0.29,-0.29 -0.29,-0.77 0,-1.06l2.62,-2.62c0.29,-0.29 0.77,-0.29 1.06,0l2.62,2.62c0.29,0.29 0.29,0.77 0,1.06c-0.15,0.15 -0.34,0.22 -0.53,0.22z" class="st7"/>
   </g>
  </g>
  <g id="svg_182">
   <g id="svg_183">
    <path id="svg_184" d="m181.61,171.2c0,9.02 -7.31,16.33 -16.33,16.33c-9.02,0 -16.33,-7.31 -16.33,-16.33c0,-9.02 7.31,-16.33 16.33,-16.33c9.02,0 16.33,7.31 16.33,16.33z" class="st7"/>
    <path id="svg_185" d="m151.73,177.9c0,0 -2.25,4.71 -3.11,6.55c-0.57,1.24 0,2.13 1.35,1.72c1.72,-0.52 7.59,-2.5 7.59,-2.5l-5.83,-5.77z" class="st7"/>
   </g>
   <path id="svg_186" d="m161.01,163.13l4.69,9.45c-0.68,-0.04 -1.38,0.07 -2.04,0.4c-1.98,0.98 -2.79,3.38 -1.81,5.36c0.98,1.98 3.38,2.79 5.36,1.81c1.98,-0.98 2.79,-3.38 1.81,-5.36l-4.44,-8.96l3.58,-1.78l-1.78,-3.58l-5.37,2.66z" class="st16"/>
  </g>
  <rect id="svg_187" height="66.14" width="23.11" class="st7" y="284.03" x="264.75"/>
  <rect id="svg_188" height="14.61" width="34.52" class="st7" y="283.02" x="259.14"/>
  <rect id="svg_189" height="40.36" width="380.8" class="st7" y="317.76" x="45.08"/>
 </g>
</svg>